HIERARCHY
ROOT Hips
{
    OFFSET 0.000000 0.000000 0.000000
    CHANNELS 6 Xposition Yposition Zposition Zrotation Xrotation Yrotation
    JOINT Spine
    {
        OFFSET -0.000000 8.249566 0.000000
        CHANNELS 3 Zrotation Xrotation Yrotation
        JOINT Spine1
        {
            OFFSET -0.000000 22.751984 0.000000
            CHANNELS 3 Zrotation Xrotation Yrotation
            JOINT Neck
            {
                OFFSET -0.000000 22.658548 2.059868
                CHANNELS 3 Zrotation Xrotation Yrotation
                JOINT Head
                {
                    OFFSET -0.000000 14.084625 -2.012089
                    CHANNELS 3 Zrotation Xrotation Yrotation
                    End Site
                    {
                        OFFSET -0.000000 25.151115 0.000000
                    }
                }
            }
            JOINT LeftShoulder
            {
                OFFSET 4.014710 20.418900 0.142539
                CHANNELS 3 Zrotation Xrotation Yrotation
                JOINT LeftArm
                {
                    OFFSET 12.409162 0.000000 0.000000
                    CHANNELS 3 Zrotation Xrotation Yrotation
                    JOINT LeftForeArm
                    {
                        OFFSET 32.111938 0.000000 0.000000
                        CHANNELS 3 Zrotation Xrotation Yrotation
                        JOINT LeftHand
                        {
                            OFFSET 25.320286 0.000000 0.000000
                            CHANNELS 3 Zrotation Xrotation Yrotation
                            End Site
                            {
                                OFFSET 15.090670 0.000000 0.000000
                            }
                        }
                    }
                }
            }
            JOINT RightShoulder
            {
                OFFSET -4.019371 20.418900 0.142539
                CHANNELS 3 Zrotation Xrotation Yrotation
                JOINT RightArm
                {
                    OFFSET -12.409162 0.000000 0.000000
                    CHANNELS 3 Zrotation Xrotation Yrotation
                    JOINT RightForeArm
                    {
                        OFFSET -32.111938 0.000000 0.000000
                        CHANNELS 3 Zrotation Xrotation Yrotation
                        JOINT RightHand
                        {
                            OFFSET -25.320286 0.000000 0.000000
                            CHANNELS 3 Zrotation Xrotation Yrotation
                            End Site
                            {
                                OFFSET -15.090670 0.000000 0.000000
                            }
                        }
                    }
                }
            }
        }
    }
    JOINT LeftUpLeg
    {
        OFFSET 10.060447 0.000000 0.000000
        CHANNELS 3 Zrotation Xrotation Yrotation
        JOINT LeftLeg
        {
            OFFSET -0.000000 -49.683781 0.000000
            CHANNELS 3 Zrotation Xrotation Yrotation
            JOINT LeftFoot
            {
                OFFSET -0.000000 -37.035061 0.000000
                CHANNELS 3 Zrotation Xrotation Yrotation
                JOINT LeftToeBase
                {
                    OFFSET -0.000000 -6.539289 15.090670
                    CHANNELS 3 Zrotation Xrotation Yrotation
                    End Site
                    {
                        OFFSET -0.000000 0.000000 4.024179
                    }
                }
            }
        }
    }
    JOINT RightUpLeg
    {
        OFFSET -10.060447 0.000000 0.000000
        CHANNELS 3 Zrotation Xrotation Yrotation
        JOINT RightLeg
        {
            OFFSET -0.000000 -49.683781 0.000000
            CHANNELS 3 Zrotation Xrotation Yrotation
            JOINT RightFoot
            {
                OFFSET -0.000000 -37.035061 0.000000
                CHANNELS 3 Zrotation Xrotation Yrotation
                JOINT RightToeBase
                {
                    OFFSET -0.000000 -6.539289 15.090670
                    CHANNELS 3 Zrotation Xrotation Yrotation
                    End Site
                    {
                        OFFSET -0.000000 0.000000 4.024179
                    }
                }
            }
        }
    }
}
MOTION
Frames:    5
Frame Time:    0.008333
-16.884972    96.293221    223.254440    -1.147186    0.641992    -176.944061    -0.129834    5.213045    -0.108588    -0.035110    -1.041995    -0.115438    2.689356    2.334622    0.825864    -1.549547    4.581668    0.355661    21.106916    -3.830320    -2.117890    -25.935844    3.070001    -1.586518    -0.246300    3.767177    1.357003    3.269042    3.609074    -5.650038    -20.498535    -1.141415    -7.250080    24.510708    5.273471    14.179490    1.566400    1.992561    -2.561529    -0.781962    2.043650    -2.358083    2.687774    -4.426751    -3.783031    -2.508730    8.272140    -1.975507    -0.610406    -7.399797    3.288196    0.000000    0.000000    0.000000    -5.031370    -1.867715    -3.548747    2.254949    9.958635    0.268426    -2.369946    -12.373695    -8.737335    0.000000    0.000000    0.000000    
-16.888969    96.292084    223.245422    -1.151294    0.634802    -176.957703    -0.128712    5.207438    -0.104290    -0.045769    -1.030381    -0.110880    2.759473    2.793618    0.766142    -1.584609    3.733205    0.280425    21.133102    -3.846642    -2.124997    -25.956959    3.093815    -1.581770    -0.226321    3.739497    1.405419    3.416539    3.569233    -5.808796    -20.491167    -1.150058    -7.259442    24.503672    5.313692    14.179914    1.578551    1.971193    -2.550937    -0.801757    2.022932    -2.375541    2.686758    -4.430048    -3.778803    -2.525616    8.275184    -1.923888    -0.602725    -7.397038    3.251793    0.000000    0.000000    0.000000    -5.038070    -1.861076    -3.533738    2.256259    9.926465    0.287558    -2.374625    -12.373266    -8.744014    0.000000    0.000000    0.000000    
-16.893330    96.294144    223.238327    -1.145776    0.623860    -176.964020    -0.124794    5.207867    -0.097591    -0.039339    -1.040829    -0.104316    2.790128    2.812758    0.738066    -1.617434    3.701706    0.243929    21.133141    -3.837172    -2.156724    -25.959742    3.082236    -1.576047    -0.217528    3.750059    1.388596    3.509723    3.576048    -5.772337    -20.477434    -1.143010    -7.268970    24.495064    5.310265    14.172366    1.580914    1.986024    -2.538168    -0.829248    2.038457    -2.411345    2.687174    -4.440190    -3.769557    -2.520430    8.295538    -2.011048    -0.594821    -7.424143    3.336328    0.000000    0.000000    0.000000    -5.032916    -1.861673    -3.523008    2.261681    9.914492    0.279763    -2.343078    -12.362296    -8.767226    0.000000    0.000000    0.000000    
-16.897001    96.293495    223.229904    -1.147036    0.621514    -176.971039    -0.119783    5.210763    -0.096862    -0.049676    -1.034923    -0.103205    2.848561    2.819161    0.683305    -1.695224    3.727094    0.171477    21.156008    -3.844649    -2.168572    -25.980408    3.306292    -1.544208    -0.176967    3.629012    1.339375    3.565626    3.450838    -5.796417    -20.480518    -1.143302    -7.274732    24.518400    5.310206    14.180220    1.592427    2.046759    -2.544237    -0.833489    2.099573    -2.404048    2.688758    -4.444730    -3.727734    -2.529124    8.317372    -2.079157    -0.566637    -7.436762    3.360736    0.000000    0.000000    0.000000    -4.581568    -2.240858    -3.505489    0.719019    10.920844    0.294030    -2.375774    -12.378185    -8.788490    0.000000    0.000000    0.000000    
-16.900381    96.295235    223.220016    -1.142777    0.615309    -176.975998    0.043277    5.463824    0.091250    -0.551103    -1.553186    0.086618    3.446249    3.062536    0.567959    -1.879740    3.672578    -0.036477    21.638840    -3.656075    -2.696520    -26.167749    3.161474    -1.561125    -0.161326    3.609103    1.369349    3.617751    3.427956    -5.803327    -19.965546    -0.773497    -7.529550    24.312712    5.416902    14.055583    1.583203    2.006421    -2.423049    -0.844036    2.057773    -2.431304    2.688968    -4.443228    -3.756640    -2.531737    8.308971    -2.005865    -0.547598    -7.427652    3.329355    0.000000    0.000000    0.000000    -3.999444    -2.623386    -3.482374    -0.795471    11.565804    -3.266714    -0.697755    -12.233003    -4.797383    0.000000    0.000000    0.000000    
